<svg xmlns="http://www.w3.org/2000/svg" viewBox="0 0 520 168" width="520" height="168" font-family="Pretendard, 'Malgun Gothic', sans-serif"><rect x="4" y="8" width="96" height="32" rx="8" fill="#1B5FA8"/><text x="52.0" y="29.0" font-size="11" font-weight="800" fill="white" text-anchor="middle">부피</text><text x="112.0" y="29.0" font-size="13" font-weight="800" fill="#1B5FA8" text-anchor="middle">=</text><rect x="126" y="11" width="42" height="26" rx="13" fill="#EAF1FA" stroke="#BFD4EE" stroke-width="1"/><text x="147.0" y="28.0" font-size="10" font-weight="700" fill="#1A2430" text-anchor="middle">길이</text><text x="182.0" y="29.0" font-size="11" font-weight="800" fill="#1B5FA8" text-anchor="middle">×</text><rect x="194" y="11" width="42" height="26" rx="13" fill="#EAF1FA" stroke="#BFD4EE" stroke-width="1"/><text x="215.0" y="28.0" font-size="10" font-weight="700" fill="#1A2430" text-anchor="middle">길이</text><text x="250.0" y="29.0" font-size="11" font-weight="800" fill="#1B5FA8" text-anchor="middle">×</text><rect x="262" y="11" width="42" height="26" rx="13" fill="#EAF1FA" stroke="#BFD4EE" stroke-width="1"/><text x="283.0" y="28.0" font-size="10" font-weight="700" fill="#1A2430" text-anchor="middle">길이</text><rect x="402" y="11" width="112" height="26" rx="6" fill="white" stroke="#1B5FA8" stroke-width="1.2"/><text x="458.0" y="29.0" font-size="11" font-weight="800" fill="#1B5FA8" text-anchor="middle">cm³ · m³</text><rect x="4" y="48" width="96" height="32" rx="8" fill="#1B5FA8"/><text x="52.0" y="69.0" font-size="11" font-weight="800" fill="white" text-anchor="middle">속력</text><text x="112.0" y="69.0" font-size="13" font-weight="800" fill="#1B5FA8" text-anchor="middle">=</text><rect x="126" y="51" width="42" height="26" rx="13" fill="#EAF1FA" stroke="#BFD4EE" stroke-width="1"/><text x="147.0" y="68.0" font-size="10" font-weight="700" fill="#1A2430" text-anchor="middle">길이</text><text x="182.0" y="69.0" font-size="11" font-weight="800" fill="#1B5FA8" text-anchor="middle">÷</text><rect x="194" y="51" width="42" height="26" rx="13" fill="#EAF1FA" stroke="#BFD4EE" stroke-width="1"/><text x="215.0" y="68.0" font-size="10" font-weight="700" fill="#1A2430" text-anchor="middle">시간</text><rect x="402" y="51" width="112" height="26" rx="6" fill="white" stroke="#1B5FA8" stroke-width="1.2"/><text x="458.0" y="69.0" font-size="11" font-weight="800" fill="#1B5FA8" text-anchor="middle">m/s · km/h</text><rect x="4" y="88" width="96" height="32" rx="8" fill="#1B5FA8"/><text x="52.0" y="109.0" font-size="11" font-weight="800" fill="white" text-anchor="middle">농도</text><text x="112.0" y="109.0" font-size="13" font-weight="800" fill="#1B5FA8" text-anchor="middle">=</text><rect x="126" y="91" width="75" height="26" rx="13" fill="#EAF1FA" stroke="#BFD4EE" stroke-width="1"/><text x="163.5" y="108.0" font-size="10" font-weight="700" fill="#1A2430" text-anchor="middle">녹은 질량</text><text x="215.0" y="109.0" font-size="11" font-weight="800" fill="#1B5FA8" text-anchor="middle">÷</text><rect x="227" y="91" width="75" height="26" rx="13" fill="#EAF1FA" stroke="#BFD4EE" stroke-width="1"/><text x="264.5" y="108.0" font-size="10" font-weight="700" fill="#1A2430" text-anchor="middle">전체 질량</text><text x="316.0" y="109.0" font-size="11" font-weight="800" fill="#1B5FA8" text-anchor="start">× 100</text><rect x="402" y="91" width="112" height="26" rx="6" fill="white" stroke="#1B5FA8" stroke-width="1.2"/><text x="458.0" y="109.0" font-size="11" font-weight="800" fill="#1B5FA8" text-anchor="middle">%</text><rect x="4" y="128" width="96" height="32" rx="8" fill="#1B5FA8"/><text x="52.0" y="149.0" font-size="11" font-weight="800" fill="white" text-anchor="middle">배터리 용량</text><text x="112.0" y="149.0" font-size="13" font-weight="800" fill="#1B5FA8" text-anchor="middle">=</text><rect x="126" y="131" width="42" height="26" rx="13" fill="#EAF1FA" stroke="#BFD4EE" stroke-width="1"/><text x="147.0" y="148.0" font-size="10" font-weight="700" fill="#1A2430" text-anchor="middle">전류</text><text x="182.0" y="149.0" font-size="11" font-weight="800" fill="#1B5FA8" text-anchor="middle">×</text><rect x="194" y="131" width="42" height="26" rx="13" fill="#EAF1FA" stroke="#BFD4EE" stroke-width="1"/><text x="215.0" y="148.0" font-size="10" font-weight="700" fill="#1A2430" text-anchor="middle">시간</text><rect x="402" y="131" width="112" height="26" rx="6" fill="white" stroke="#1B5FA8" stroke-width="1.2"/><text x="458.0" y="149.0" font-size="11" font-weight="800" fill="#1B5FA8" text-anchor="middle">mAh · Ah</text></svg>