<svg xmlns="http://www.w3.org/2000/svg" viewBox="0 0 520 84" width="520" height="84" font-family="Pretendard, 'Malgun Gothic', sans-serif"><rect x="25.0" y="36" width="14" height="14" fill="#EAF0E6" stroke="#3A6036" stroke-width="1.3"/><path d="M25.0 36 L30.32 30.68 L44.32 30.68 L39.0 36Z" fill="white" stroke="#3A6036" stroke-width="1.3"/><path d="M39.0 36 L44.32 30.68 L44.32 44.68 L39.0 50Z" fill="#8FAE8A" fill-opacity=".45" stroke="#3A6036" stroke-width="1.3"/><text x="34.7" y="62.0" font-size="7.2" font-weight="600" fill="#6B746A" text-anchor="middle">한 변 1 cm</text><text x="52.3" y="30.0" font-size="13" font-weight="800" fill="#3A6036" text-anchor="start">1 cm<tspan dy="-4.9" font-size="8.8">3</tspan><tspan dy="4.9"> </tspan></text><text x="52.3" y="45.0" font-size="8.6" font-weight="700" fill="#1F2A1E" text-anchor="start">= 1 mL</text><line x1="148" y1="30" x2="172" y2="30" stroke="#E6CC84" stroke-width="1.8"/><path d="M172 30 L167.5 32.2 L167.5 27.8Z" fill="#E6CC84"/><text x="160.0" y="24.0" font-size="7.2" font-weight="800" fill="#8A6D1C" text-anchor="middle">×1000</text><rect x="191.0" y="24" width="26" height="26" fill="#EAF0E6" stroke="#3A6036" stroke-width="1.3"/><path d="M191.0 24 L200.88 14.12 L226.88 14.12 L217.0 24Z" fill="white" stroke="#3A6036" stroke-width="1.3"/><path d="M217.0 24 L226.88 14.12 L226.88 40.12 L217.0 50Z" fill="#8FAE8A" fill-opacity=".45" stroke="#3A6036" stroke-width="1.3"/><text x="208.9" y="62.0" font-size="7.2" font-weight="600" fill="#6B746A" text-anchor="middle">한 변 10 cm</text><text x="234.9" y="30.0" font-size="13" font-weight="800" fill="#3A6036" text-anchor="start">1 L</text><text x="234.9" y="45.0" font-size="8.6" font-weight="700" fill="#1F2A1E" text-anchor="start">= 1000 cm<tspan dy="-3.3" font-size="5.8">3</tspan><tspan dy="3.3"> </tspan> = 1000 mL</text><line x1="336" y1="30" x2="360" y2="30" stroke="#E6CC84" stroke-width="1.8"/><path d="M360 30 L355.5 32.2 L355.5 27.8Z" fill="#E6CC84"/><text x="348.0" y="24.0" font-size="7.2" font-weight="800" fill="#8A6D1C" text-anchor="middle">×1000</text><rect x="373.0" y="12" width="38" height="38" fill="#EAF0E6" stroke="#3A6036" stroke-width="1.3"/><path d="M373.0 12 L387.44 -2.4399999999999995 L425.44 -2.4399999999999995 L411.0 12Z" fill="white" stroke="#3A6036" stroke-width="1.3"/><path d="M411.0 12 L425.44 -2.4399999999999995 L425.44 35.56 L411.0 50Z" fill="#8FAE8A" fill-opacity=".45" stroke="#3A6036" stroke-width="1.3"/><text x="399.2" y="62.0" font-size="7.2" font-weight="600" fill="#6B746A" text-anchor="middle">한 변 1 m</text><text x="433.4" y="30.0" font-size="13" font-weight="800" fill="#3A6036" text-anchor="start">1 m<tspan dy="-4.9" font-size="8.8">3</tspan><tspan dy="4.9"> </tspan></text><text x="433.4" y="45.0" font-size="8.6" font-weight="700" fill="#1F2A1E" text-anchor="start">= 1000 L</text><rect x="4" y="68" width="512" height="15" rx="4" fill="#FCF8EA"/><text x="260.0" y="79.0" font-size="7.8" font-weight="700" fill="#3A6036" text-anchor="middle">1 mL = 1 cm<tspan dy="-3.0" font-size="5.3">3</tspan><tspan dy="3.0"> </tspan> (예비시행 기출)  ·  물의 밀도 1 g/mL → 물 1 mL는 1 g, 1 L는 1 kg</text></svg>